<svg xmlns="http://www.w3.org/2000/svg" viewBox="0 0 512 512">
  <!-- Background -->
  <rect width="512" height="512" rx="115" fill="#111827"/>

  <!-- Person 1 -->
  <g fill="#F59E0B">
    <circle cx="178" cy="166" r="43"/>
    <path d="
      M105 342
      C105 286 130 238 178 238
      C226 238 251 286 251 342
      L251 352
      L105 352 Z"/>
  </g>

  <!-- Person 2 -->
  <g fill="#F59E0B" opacity="0.82">
    <circle cx="334" cy="166" r="43"/>
    <path d="
      M261 342
      C261 286 286 238 334 238
      C382 238 407 286 407 342
      L407 352
      L261 352 Z"/>
  </g>

  <!-- ID / document -->
  <g transform="rotate(-8 256 300)">
    <rect
      x="146" y="231"
      width="220" height="140"
      rx="20"
      fill="#ffffff"/>

    <!-- ID stripe -->
    <rect
      x="146" y="266"
      width="220" height="26"
      fill="#F59E0B"/>

    <!-- ID slot -->
    <rect
      x="236" y="243"
      width="40"
      height="8"
      rx="4"
      fill="#111827"/>
  </g>
</svg>